<svg width="390" height="83" viewBox="0 0 390 83" fill="none" xmlns="http://www.w3.org/2000/svg">
<g clip-path="url(#clip0_72_200)">
<rect width="390" height="83" rx="10" fill="url(#paint0_linear_72_200)"/>
<path d="M640.604 -51.4029L652.623 -6.5445L682.787 -14.6268L677.283 -35.168L669.172 -32.9946L668.605 -35.1093L679.782 -38.1042L686.703 -12.2765L649.204 -2.2288L636.334 -50.259L581.359 -35.5285L593.379 9.32997L623.543 1.24768L618.039 -19.2935L609.927 -17.12L609.36 -19.2347L620.537 -22.2295L627.457 3.5982L590.072 13.6156L577.202 -34.4146L522.227 -19.684L534.247 25.1744L564.411 17.092L558.907 -3.4492L550.795 -1.27566L550.228 -3.39035L561.405 -6.38525L568.326 19.4424L530.827 29.4902L517.958 -18.54L462.982 -3.8094L475.002 41.049L505.165 32.9668L499.661 12.4255L491.55 14.599L490.983 12.4843L502.16 9.48948L509.081 35.3172L471.639 45.3496L458.769 -2.68062L403.794 12.05L415.814 56.9085L445.977 48.8262L440.473 28.2849L432.361 30.4585L431.795 28.3438L442.972 25.3489L449.892 51.1766L412.394 61.2243L399.524 13.1941L344.549 27.9248L356.568 72.7832L386.732 64.7009L381.228 44.1597L373.116 46.3332L372.55 44.2185L383.727 41.2236L390.647 67.0513L353.262 77.0687L340.392 29.0385L285.417 43.769L297.437 88.6274L327.601 80.5451L322.097 60.0039L313.985 62.1774L313.418 60.0627L324.595 57.0678L331.516 82.8955L294.017 92.9432L281.147 44.9131L226.172 59.6437L238.192 104.502L268.355 96.4199L262.851 75.8786L254.739 78.0522L254.173 75.9375L265.35 72.9426L272.27 98.7702L234.794 108.812L221.924 60.782L166.948 75.5126L178.968 120.371L209.132 112.289L203.628 91.7474L195.516 93.9209L194.95 91.8063L206.126 88.8115L213.047 114.639L175.548 124.687L162.679 76.6567L107.704 91.3872L119.723 136.246L149.887 128.163L144.383 107.622L136.271 109.796L135.704 107.681L146.881 104.686L153.802 130.514L116.417 140.531L103.547 92.5009L48.5716 107.232L60.5914 152.09L90.7549 144.008L85.2509 123.466L77.1391 125.64L76.5725 123.525L87.7496 120.53L94.6701 146.358L57.1715 156.406L44.3019 108.376L-10.6731 123.106L1.34664 167.965L31.5102 159.882L26.0062 139.341L17.8943 141.515L17.3277 139.4L28.5043 136.405L35.4248 162.233L-2.01711 172.265L-14.8868 124.235L-69.8613 138.966L-57.8415 183.824L-27.6785 175.742L-33.1825 155.201L-41.2943 157.374L-41.8609 155.259L-30.6843 152.265L-23.7638 178.092L-61.2619 188.14L-74.1315 140.11L-129.107 154.84L-117.087 199.699L-86.9238 191.617L-92.4278 171.075L-100.539 173.249L-101.106 171.134L-89.9291 168.139L-83.0086 193.967L-120.394 203.984L-133.263 155.954L-188.239 170.685L-176.219 215.543L-146.055 207.461L-151.559 186.92L-159.671 189.093L-160.238 186.978L-149.061 183.984L-142.141 209.811L-179.639 219.859L-192.508 171.829L-247.483 186.559L-235.464 231.418L-205.301 223.336L-210.805 202.794L-218.916 204.968L-219.482 202.853L-208.306 199.858L-201.385 225.686L-247.905 238.151L-245.477 247.213L-189.895 232.32L-201.671 188.368L-230.973 196.219L-225.55 216.458L-217.439 214.285L-216.791 216.701L-228.829 219.927L-235.993 193.193L-199.143 183.319L-186.677 229.84L-186.637 229.829L-186.232 231.339L-130.65 216.446L-142.427 172.493L-171.728 180.345L-166.305 200.584L-158.193 198.41L-157.546 200.827L-169.585 204.052L-176.748 177.318L-139.898 167.444L-129.456 206.413L-129.528 206.432L-127.1 215.494L-71.5178 200.601L-83.2947 156.649L-112.596 164.5L-107.173 184.74L-99.0615 182.566L-98.414 184.982L-110.453 188.208L-117.616 161.474L-80.7659 151.6L-68.3007 198.121L-68.2598 198.11L-67.8552 199.62L-12.273 184.727L-24.0499 140.774L-53.3515 148.626L-47.9285 168.865L-39.8166 166.691L-39.1692 169.108L-51.2078 172.333L-58.3712 145.599L-21.5206 135.725L-11.0791 174.694L-11.0948 174.698L-8.66656 183.76L46.9156 168.867L35.1387 124.915L5.8371 132.766L11.2602 153.005L19.3715 150.832L20.0189 153.248L7.98078 156.474L0.817436 129.74L37.6676 119.866L50.1327 166.387L50.1736 166.376L50.5782 167.886L106.16 152.992L94.3834 109.04L65.0819 116.892L70.5049 137.131L78.6168 134.957L79.2642 137.374L67.2256 140.599L60.0623 113.865L96.9123 103.991L107.354 142.96L107.282 142.979L109.71 152.041L165.292 137.148L153.515 93.196L124.214 101.047L129.637 121.286L137.749 119.113L138.396 121.529L126.358 124.755L119.194 98.0209L156.045 88.1468L168.51 134.668L168.55 134.657L168.955 136.167L224.538 121.273L212.761 77.3213L183.459 85.1726L188.882 105.412L196.994 103.238L197.641 105.654L185.602 108.88L178.439 82.1463L215.29 72.2722L227.755 118.793L227.774 118.788L228.179 120.298L283.761 105.405L271.984 61.4525L242.682 69.3038L248.105 89.5429L256.217 87.3694L256.865 89.7856L244.826 93.0114L237.663 66.2774L274.513 56.4033L286.978 102.924L287.019 102.913L287.423 104.423L343.006 89.5298L331.229 45.5778L301.928 53.4291L307.351 73.6682L315.462 71.4946L316.11 73.9109L304.071 77.1368L296.907 50.4028L333.758 40.5286L344.2 79.4968L344.127 79.5163L346.555 88.5788L402.138 73.6855L390.361 29.7334L361.059 37.5849L366.482 57.824L374.594 55.6504L375.241 58.0667L363.203 61.2924L356.039 34.5585L392.89 24.6844L405.355 71.2051L405.395 71.1942L405.8 72.7042L461.383 57.8109L449.606 13.8588L420.304 21.7101L425.727 41.9492L433.839 39.7757L434.487 42.192L422.448 45.4177L415.285 18.6837L452.135 8.80966L462.577 47.7778L462.56 47.7822L464.989 56.8447L520.571 41.9514L508.794 -2.00073L479.493 5.8506L484.916 26.0897L493.028 23.9161L493.675 26.3324L481.636 29.5583L474.473 2.82434L511.323 -7.04975L523.788 39.4709L523.829 39.46L524.234 40.9699L579.817 26.0766L568.04 -17.8755L538.738 -10.024L544.161 10.2151L552.272 8.04157L552.92 10.4578L540.881 13.6837L533.718 -13.0503L570.568 -22.9244L581.01 16.0438L580.937 16.0633L583.365 25.1257L638.948 10.2324L627.171 -33.7197L597.87 -25.8684L603.293 -5.62924L611.405 -7.80281L612.052 -5.38653L600.013 -2.16065L592.849 -28.8946L629.701 -38.7688L642.166 7.75185L642.206 7.74101L642.611 9.251L698.193 -5.64233L686.416 -49.5944L657.114 -41.7429L662.537 -21.5038L670.65 -23.6775L671.297 -21.2613L659.258 -18.0353L652.094 -44.7692L688.945 -54.6433L701.799 -6.66932L710.862 -9.09758L695.579 -66.1336L640.604 -51.4029Z" fill="white" fill-opacity="0.05"/>
<path d="M712.254 -3.09605L-243.898 253.104L-241.47 262.167L714.682 5.96643L712.254 -3.09605Z" fill="white" fill-opacity="0.05"/>
<path d="M691.371 -81.0321L-264.781 175.168L-262.353 184.231L693.799 -71.9697L691.371 -81.0321Z" fill="white" fill-opacity="0.05"/>
</g>
<defs>
<linearGradient id="paint0_linear_72_200" x1="195" y1="0" x2="195" y2="83" gradientUnits="userSpaceOnUse">
<stop stop-color="#464646"/>
<stop offset="1" stop-color="#2B2B2B"/>
</linearGradient>
<clipPath id="clip0_72_200">
<rect width="390" height="83" rx="10" fill="white"/>
</clipPath>
</defs>
</svg>
