<svg width="66" height="66" viewBox="0 0 66 66" fill="none" xmlns="http://www.w3.org/2000/svg">
<rect width="66" height="66" rx="33" fill="url(#paint0_linear_199_215)"/>
<path opacity="0.4" d="M19.155 30C18.51 30 18 29.49 18 28.845V25.38C18 21.315 21.315 18 25.38 18H28.845C29.49 18 30 18.51 30 19.155C30 19.8 29.49 20.31 28.845 20.31H25.38C22.575 20.31 20.31 22.59 20.31 25.38V28.845C20.31 29.49 19.785 30 19.155 30Z" fill="white"/>
<path opacity="0.4" d="M46.845 30C46.215 30 45.69 29.49 45.69 28.845V25.38C45.69 22.575 43.41 20.31 40.62 20.31H37.155C36.51 20.31 36 19.785 36 19.155C36 18.525 36.51 18 37.155 18H40.62C44.685 18 48 21.315 48 25.38V28.845C48 29.49 47.49 30 46.845 30Z" fill="white"/>
<path d="M40.6199 47.9999H38.5349C37.9049 47.9999 37.3799 47.4899 37.3799 46.8449C37.3799 46.2149 37.8899 45.6899 38.5349 45.6899H40.6199C43.4249 45.6899 45.6899 43.4099 45.6899 40.6199V38.5499C45.6899 37.9199 46.1999 37.3949 46.8449 37.3949C47.4749 37.3949 47.9999 37.9049 47.9999 38.5499V40.6199C47.9999 44.6849 44.6849 47.9999 40.6199 47.9999Z" fill="white"/>
<path d="M28.845 48H25.38C21.315 48 18 44.685 18 40.62V37.155C18 36.51 18.51 36 19.155 36C19.8 36 20.31 36.51 20.31 37.155V40.62C20.31 43.425 22.59 45.69 25.38 45.69H28.845C29.475 45.69 30 46.2 30 46.845C30 47.49 29.49 48 28.845 48Z" fill="white"/>
<path d="M42.6893 31.8451H40.6493H25.3493H23.3093C22.6643 31.8451 22.1543 32.3701 22.1543 33.0001C22.1543 33.6301 22.6643 34.1551 23.3093 34.1551H25.3493H40.6493H42.6893C43.3343 34.1551 43.8443 33.6301 43.8443 33.0001C43.8443 32.3701 43.3343 31.8451 42.6893 31.8451Z" fill="white"/>
<path d="M25.3506 35.9101V36.4051C25.3506 38.8951 27.3606 40.9051 29.8506 40.9051H36.1506C38.6406 40.9051 40.6506 38.8951 40.6506 36.4051V35.9101C40.6506 35.7301 40.5156 35.5951 40.3356 35.5951H25.6656C25.4856 35.5951 25.3506 35.7301 25.3506 35.9101Z" fill="white"/>
<path opacity="0.4" d="M25.3506 30.0899V29.5948C25.3506 27.1048 27.3606 25.0948 29.8506 25.0948H36.1506C38.6406 25.0948 40.6506 27.1048 40.6506 29.5948V30.0899C40.6506 30.2699 40.5156 30.4049 40.3356 30.4049H25.6656C25.4856 30.4049 25.3506 30.2699 25.3506 30.0899Z" fill="white"/>
<defs>
<linearGradient id="paint0_linear_199_215" x1="33" y1="0" x2="33" y2="66" gradientUnits="userSpaceOnUse">
<stop stop-color="#464646"/>
<stop offset="1" stop-color="#2B2B2B"/>
</linearGradient>
</defs>
</svg>
