<svg width="77" height="81" viewBox="0 0 77 81" fill="none" xmlns="http://www.w3.org/2000/svg">
<g filter="url(#filter0_dddd_72_178)">
<rect x="2" y="1" width="66" height="66" rx="33" fill="url(#paint0_linear_72_178)"/>
<path opacity="0.4" d="M21.155 31C20.51 31 20 30.49 20 29.845V26.38C20 22.315 23.315 19 27.38 19H30.845C31.49 19 32 19.51 32 20.155C32 20.8 31.49 21.31 30.845 21.31H27.38C24.575 21.31 22.31 23.59 22.31 26.38V29.845C22.31 30.49 21.785 31 21.155 31Z" fill="white"/>
<path opacity="0.4" d="M48.845 31C48.215 31 47.69 30.49 47.69 29.845V26.38C47.69 23.575 45.41 21.31 42.62 21.31H39.155C38.51 21.31 38 20.785 38 20.155C38 19.525 38.51 19 39.155 19H42.62C46.685 19 50 22.315 50 26.38V29.845C50 30.49 49.49 31 48.845 31Z" fill="white"/>
<path d="M42.6199 48.9999H40.5349C39.9049 48.9999 39.3799 48.4899 39.3799 47.8449C39.3799 47.2149 39.8899 46.6899 40.5349 46.6899H42.6199C45.4249 46.6899 47.6899 44.4099 47.6899 41.6199V39.5499C47.6899 38.9199 48.1999 38.3949 48.8449 38.3949C49.4749 38.3949 49.9999 38.9049 49.9999 39.5499V41.6199C49.9999 45.6849 46.6849 48.9999 42.6199 48.9999Z" fill="white"/>
<path d="M30.845 49H27.38C23.315 49 20 45.685 20 41.62V38.155C20 37.51 20.51 37 21.155 37C21.8 37 22.31 37.51 22.31 38.155V41.62C22.31 44.425 24.59 46.69 27.38 46.69H30.845C31.475 46.69 32 47.2 32 47.845C32 48.49 31.49 49 30.845 49Z" fill="white"/>
<path d="M44.6893 32.8451H42.6493H27.3493H25.3093C24.6643 32.8451 24.1543 33.3701 24.1543 34.0001C24.1543 34.6301 24.6643 35.1551 25.3093 35.1551H27.3493H42.6493H44.6893C45.3343 35.1551 45.8443 34.6301 45.8443 34.0001C45.8443 33.3701 45.3343 32.8451 44.6893 32.8451Z" fill="white"/>
<path d="M27.3506 36.9101V37.4051C27.3506 39.8951 29.3606 41.9051 31.8506 41.9051H38.1506C40.6406 41.9051 42.6506 39.8951 42.6506 37.4051V36.9101C42.6506 36.7301 42.5156 36.5951 42.3356 36.5951H27.6656C27.4856 36.5951 27.3506 36.7301 27.3506 36.9101Z" fill="white"/>
<path opacity="0.4" d="M27.3506 31.0899V30.5948C27.3506 28.1048 29.3606 26.0948 31.8506 26.0948H38.1506C40.6406 26.0948 42.6506 28.1048 42.6506 30.5948V31.0899C42.6506 31.2699 42.5156 31.4049 42.3356 31.4049H27.6656C27.4856 31.4049 27.3506 31.2699 27.3506 31.0899Z" fill="white"/>
</g>
<defs>
<filter id="filter0_dddd_72_178" x="0.836364" y="0.418182" width="75.3091" height="79.9636" filterUnits="userSpaceOnUse" color-interpolation-filters="sRGB">
<feFlood flood-opacity="0" result="BackgroundImageFix"/>
<feColorMatrix in="SourceAlpha" type="matrix" values="0 0 0 0 0 0 0 0 0 0 0 0 0 0 0 0 0 0 127 0" result="hardAlpha"/>
<feOffset dy="0.581818"/>
<feGaussianBlur stdDeviation="0.581818"/>
<feColorMatrix type="matrix" values="0 0 0 0 0 0 0 0 0 0 0 0 0 0 0 0 0 0 0.1 0"/>
<feBlend mode="normal" in2="BackgroundImageFix" result="effect1_dropShadow_72_178"/>
<feColorMatrix in="SourceAlpha" type="matrix" values="0 0 0 0 0 0 0 0 0 0 0 0 0 0 0 0 0 0 127 0" result="hardAlpha"/>
<feOffset dx="1.16364" dy="2.32727"/>
<feGaussianBlur stdDeviation="1.16364"/>
<feColorMatrix type="matrix" values="0 0 0 0 0 0 0 0 0 0 0 0 0 0 0 0 0 0 0.09 0"/>
<feBlend mode="normal" in2="effect1_dropShadow_72_178" result="effect2_dropShadow_72_178"/>
<feColorMatrix in="SourceAlpha" type="matrix" values="0 0 0 0 0 0 0 0 0 0 0 0 0 0 0 0 0 0 127 0" result="hardAlpha"/>
<feOffset dx="2.32727" dy="5.23636"/>
<feGaussianBlur stdDeviation="1.74545"/>
<feColorMatrix type="matrix" values="0 0 0 0 0 0 0 0 0 0 0 0 0 0 0 0 0 0 0.05 0"/>
<feBlend mode="normal" in2="effect2_dropShadow_72_178" result="effect3_dropShadow_72_178"/>
<feColorMatrix in="SourceAlpha" type="matrix" values="0 0 0 0 0 0 0 0 0 0 0 0 0 0 0 0 0 0 127 0" result="hardAlpha"/>
<feOffset dx="4.07273" dy="9.30909"/>
<feGaussianBlur stdDeviation="2.03636"/>
<feColorMatrix type="matrix" values="0 0 0 0 0 0 0 0 0 0 0 0 0 0 0 0 0 0 0.01 0"/>
<feBlend mode="normal" in2="effect3_dropShadow_72_178" result="effect4_dropShadow_72_178"/>
<feBlend mode="normal" in="SourceGraphic" in2="effect4_dropShadow_72_178" result="shape"/>
</filter>
<linearGradient id="paint0_linear_72_178" x1="35" y1="1" x2="35" y2="67" gradientUnits="userSpaceOnUse">
<stop stop-color="#464646"/>
<stop offset="1" stop-color="#2B2B2B"/>
</linearGradient>
</defs>
</svg>
